<svg width="45" height="45" xmlns="http://www.w3.org/2000/svg" xmlns:xlink="http://www.w3.org/1999/xlink" xml:space="preserve" overflow="hidden"><g transform="translate(-219 -212)"><path d="M244.242 217.156C244.242 219.227 242.563 220.906 240.492 220.906 238.421 220.906 236.742 219.227 236.742 217.156 236.742 215.085 238.421 213.406 240.492 213.406 242.563 213.406 244.242 215.085 244.242 217.156Z" fill="#F1789A"/><path d="M249.67 234.439C249.619 233.23 249.182 232.068 248.423 231.125L246.305 228.078 243.961 224.698C243.548 224.113 243.169 223.47 242.7 222.922 242.092 222.213 241.21 221.797 240.277 221.778 239.43 221.791 238.614 222.099 237.97 222.65 237.122 223.25 233.442 225.823 232.462 226.531 231.314 227.337 231.08 228.814 232.247 229.752 234.066 231.186 235.913 232.625 237.75 234.031L235.481 242.469 240.094 242.469 240.094 255.594 243.844 255.594 243.844 242.469 248.33 242.469 247.692 240.097C247.587 239.773 247.524 239.438 247.505 239.098 247.495 238.465 247.814 237.873 248.348 237.533L248.348 237.533C249.207 236.735 249.688 235.611 249.67 234.439ZM236.47 228.275 237.656 227.469 238.805 230.127 238.805 230.127Z" fill="#F1789A"/></g></svg>