<svg width="40" height="40" xmlns="http://www.w3.org/2000/svg" xmlns:xlink="http://www.w3.org/1999/xlink" xml:space="preserve" overflow="hidden"><g transform="translate(-922 -476)"><path d="M923.667 496C923.667 496.917 924.417 497.667 925.333 497.667L925.333 494.333C924.417 494.333 923.667 495.083 923.667 496Z" fill="#FFFFFF"/><path d="M958.667 494.333 958.667 497.667C959.583 497.667 960.333 496.917 960.333 496 960.333 495.083 959.583 494.333 958.667 494.333Z" fill="#FFFFFF"/><path d="M928.25 489.75 927.833 489.75C926.917 489.75 926.167 490.5 926.167 491.417L926.167 500.583C926.167 501.5 926.917 502.25 927.833 502.25L928.25 502.25C929.167 502.25 929.917 501.5 929.917 500.583L929.917 491.417C929.917 490.5 929.167 489.75 928.25 489.75Z" fill="#FFFFFF"/><path d="M956.167 489.75 955.75 489.75C954.833 489.75 954.083 490.5 954.083 491.417L954.083 500.583C954.083 501.5 954.833 502.25 955.75 502.25L956.167 502.25C957.083 502.25 957.833 501.5 957.833 500.583L957.833 491.417C957.833 490.5 957.083 489.75 956.167 489.75Z" fill="#FFFFFF"/><path d="M951.583 486 950.75 486C949.833 486 949.083 486.75 949.083 487.667L949.083 493.5 934.917 493.5 934.917 487.667C934.917 486.75 934.167 486 933.25 486L932.417 486C931.5 486 930.75 486.75 930.75 487.667L930.75 504.333C930.75 505.25 931.5 506 932.417 506L933.25 506C934.167 506 934.917 505.25 934.917 504.333L934.917 498.5 949.083 498.5 949.083 504.333C949.083 505.25 949.833 506 950.75 506L951.583 506C952.5 506 953.25 505.25 953.25 504.333L953.25 487.667C953.25 486.75 952.5 486 951.583 486Z" fill="#FFFFFF"/></g></svg>