<svg width="44" height="43" xmlns="http://www.w3.org/2000/svg" xmlns:xlink="http://www.w3.org/1999/xlink" xml:space="preserve" overflow="hidden"><g transform="translate(-920 -387)"><path d="M34.4896 15.5875C30.4583 11.1979 26.1135 14.199 22.799 14.9604 22.7094 13.8854 22.4406 12.9 22.1271 11.9594 23.5156 11.825 25.576 11.3771 27.0094 9.89896 29.3385 7.56979 29.1146 3.62813 29.1146 3.62813 29.1146 3.62813 25.1281 3.40417 22.8438 5.73333 21.7687 6.80833 21.2313 8.24167 20.9625 9.49583 18.9917 6.18125 16.125 4.43437 15.9458 4.3L14.5573 6.58437C14.6021 6.62917 19.4396 9.63021 20.1115 14.9156 16.8417 14.1094 12.4521 11.1979 8.51042 15.5427 4.16563 20.3354 7.88333 44.8812 21.5448 38.1177 35.1615 44.926 38.8344 20.3802 34.4896 15.5875Z" fill="#FFFFFF" transform="matrix(1.02326 0 0 1 920 387)"/></g></svg>