<svg width="40" height="39" xmlns="http://www.w3.org/2000/svg" xmlns:xlink="http://www.w3.org/1999/xlink" xml:space="preserve" overflow="hidden"><g transform="translate(-724 -144)"><path d="M26 12.1875C26 15.7774 23.0899 18.6875 19.5 18.6875 15.9101 18.6875 13 15.7774 13 12.1875 13 8.59765 15.9101 5.6875 19.5 5.6875 23.0899 5.6875 26 8.59765 26 12.1875Z" fill="#FFFFFF" transform="matrix(1.02564 0 0 1 724 144)"/><path d="M32.5 33.3125 32.5 26.8125C32.5 25.8375 32.0125 24.8625 31.2 24.2125 29.4125 22.75 27.1375 21.775 24.8625 21.125 23.2375 20.6375 21.45 20.3125 19.5 20.3125 17.7125 20.3125 15.925 20.6375 14.1375 21.125 11.8625 21.775 9.5875 22.9125 7.8 24.2125 6.9875 24.8625 6.5 25.8375 6.5 26.8125L6.5 33.3125 32.5 33.3125Z" fill="#FFFFFF" transform="matrix(1.02564 0 0 1 724 144)"/></g></svg>