<svg width="46" height="46" xmlns="http://www.w3.org/2000/svg" xmlns:xlink="http://www.w3.org/1999/xlink" xml:space="preserve" overflow="hidden"><g transform="translate(-590 -408)"><path d="M628.333 439.126C628.308 437.719 627.651 436.398 626.545 435.529 624.753 434.064 622.648 433.159 620.438 432.367L618.09 431.403C617.91 431.33 617.792 431.156 617.792 430.962L617.792 429.789C619.543 428.386 620.59 426.286 620.656 424.043L621.924 421.867C622.107 421.435 622.181 420.965 622.138 420.498 621.86 417.358 619.956 414.593 617.121 413.215 616.893 413.108 616.624 413.132 616.418 413.278L615.934 413.613 615.399 412.881C615.235 412.65 614.987 412.492 614.708 412.441 614.209 412.355 613.704 412.312 613.197 412.312 608.881 412.312 605.176 415.383 604.375 419.625L604.355 419.729C604.123 420.973 603.641 422.158 602.939 423.211L605.335 423.211 605.335 423.812C605.335 426.136 606.392 428.334 608.206 429.785L608.206 430.962C608.207 431.156 608.089 431.332 607.909 431.405L605.547 432.375C603.342 433.163 601.247 434.066 599.474 435.516 598.354 436.391 597.69 437.725 597.667 439.146L597.667 447.564 598.093 447.849C600.444 449.416 606.811 450.197 613.133 450.197 619.506 450.197 625.833 449.402 627.946 447.818L628.329 447.53ZM619.95 437.708C620.48 437.708 620.909 438.137 620.909 438.667 620.909 439.196 620.48 439.625 619.95 439.625 619.421 439.625 618.992 439.196 618.992 438.667 618.992 438.137 619.421 437.708 619.95 437.708ZM607.25 423.812 607.25 423.211 610.633 423.211C615.559 423.211 614.889 419.285 617.044 418.723 617.621 418.614 618.217 418.687 618.75 418.931L618.75 423.812C618.75 426.988 616.176 429.562 613 429.562 609.824 429.562 607.25 426.988 607.25 423.812ZM613 431.479C613.986 431.479 614.962 431.287 615.875 430.915L615.875 430.963C615.874 431.705 616.22 432.406 616.809 432.857 615.574 433.228 614.29 433.41 613 433.396 611.71 433.409 610.425 433.227 609.189 432.855 609.779 432.404 610.125 431.704 610.125 430.962L610.125 430.914C611.038 431.287 612.014 431.479 613 431.479ZM626.417 446.528C622.163 448.842 604.237 448.825 599.583 446.499L599.583 439.167C599.601 438.322 600 437.531 600.67 437.014 602.151 435.883 603.807 435.002 605.573 434.406L605.573 436.521C603.686 436.647 602.22 438.213 602.219 440.104 602.219 440.307 602.306 440.501 602.458 440.636L602.458 443.698C602.46 444.365 602.92 444.943 603.57 445.095 603.812 445.409 604.263 445.468 604.578 445.226 604.893 444.984 604.951 444.533 604.71 444.218 604.468 443.904 604.016 443.845 603.702 444.087 603.691 444.095 603.68 444.104 603.67 444.112 603.516 444.031 603.419 443.872 603.417 443.698L603.417 440.636C603.569 440.501 603.656 440.308 603.656 440.104 603.656 438.913 604.622 437.948 605.812 437.948L606.292 437.948C607.483 437.948 608.448 438.913 608.448 440.104 608.449 440.307 608.536 440.501 608.688 440.636L608.688 443.698C608.686 443.872 608.589 444.031 608.435 444.112 608.134 443.853 607.68 443.886 607.421 444.187 607.161 444.487 607.195 444.941 607.495 445.201 607.796 445.46 608.25 445.427 608.509 445.126 608.518 445.116 608.526 445.105 608.535 445.095 609.184 444.943 609.644 444.365 609.646 443.698L609.646 440.636C609.798 440.501 609.885 440.308 609.885 440.104 609.883 438.214 608.417 436.648 606.531 436.522L606.531 434.059C606.662 434.011 606.79 433.966 606.921 433.921 608.328 434.798 610.545 435.312 613 435.312 615.455 435.312 617.671 434.799 619.076 433.923 619.208 433.971 619.339 434.015 619.47 434.062L619.47 436.788C619.47 436.799 619.476 436.807 619.476 436.818 618.451 437.079 617.831 438.123 618.092 439.149 618.354 440.174 619.397 440.794 620.423 440.533 621.449 440.271 622.068 439.228 621.807 438.202 621.634 437.522 621.103 436.991 620.423 436.818 620.423 436.807 620.429 436.798 620.429 436.788L620.429 434.408C622.199 435.006 623.859 435.89 625.344 437.026 626.002 437.535 626.395 438.314 626.417 439.146Z" fill="#F1789A"/><path d="M620.43 438.667C620.43 438.931 620.215 439.146 619.95 439.146 619.686 439.146 619.471 438.931 619.471 438.667 619.471 438.402 619.686 438.188 619.95 438.188 620.215 438.188 620.43 438.402 620.43 438.667Z" fill="#F1789A"/></g></svg>