<svg width="46" height="46" xmlns="http://www.w3.org/2000/svg" xmlns:xlink="http://www.w3.org/1999/xlink" xml:space="preserve" overflow="hidden"><g transform="translate(-919 -212)"><path d="M944.295 236.859 944.295 236.859C944.076 236.891 943.855 236.91 943.634 236.917 941.803 236.938 940.301 235.471 940.28 233.64 940.279 233.614 940.279 233.588 940.28 233.562 940.287 232.017 941.34 230.673 942.839 230.295 943.155 230.18 944.894 229.399 945.67 226.073 945.889 225.106 946.524 224.285 947.405 223.831 946.19 223.091 944.861 222.558 943.471 222.254 942.74 222.143 942.002 222.079 941.262 222.062 940.524 222.079 939.788 222.143 939.058 222.254 937.62 222.519 936.25 223.073 935.033 223.883 934.648 224.119 934.372 224.498 934.266 224.938L930.72 236.821C930.42 237.836 930.999 238.902 932.014 239.203 932.03 239.208 932.046 239.212 932.062 239.217 932.243 239.295 932.44 239.328 932.637 239.312 933.477 239.325 934.221 238.776 934.458 237.971L937.429 227.908 937.429 231.262 933.883 243.146 936.47 243.146 936.47 256.562 940.304 256.562 940.304 243.146 942.22 243.146 942.22 256.562 946.054 256.562 946.054 243.146 948.641 243.146 946.499 235.958C945.821 236.38 945.075 236.685 944.295 236.859Z" fill="#FFFFFF"/><path d="M945.119 217.271C945.119 219.388 943.403 221.104 941.286 221.104 939.169 221.104 937.453 219.388 937.453 217.271 937.453 215.154 939.169 213.438 941.286 213.438 943.403 213.438 945.119 215.154 945.119 217.271Z" fill="#FFFFFF"/><path d="M946.988 231.31C947.544 230.741 948.301 230.414 949.096 230.4 949.461 230.405 949.82 230.487 950.151 230.64 950.678 229.593 951.065 228.481 951.301 227.333 951.592 226.037 950.776 224.749 949.48 224.458 948.183 224.167 946.896 224.982 946.605 226.279 945.646 230.4 943.251 231.167 943.107 231.215L943.107 231.215C942.01 231.462 941.233 232.438 941.238 233.562 941.238 234.886 942.311 235.958 943.634 235.958 943.81 235.952 943.986 235.936 944.161 235.91 944.986 235.705 945.766 235.347 946.461 234.856 945.765 233.701 945.986 232.214 946.988 231.31Z" fill="#FFFFFF"/><path d="M950.175 231.833C950.868 232.632 950.783 233.843 949.983 234.536 949.256 235.168 948.173 235.161 947.453 234.521 946.727 233.75 946.763 232.537 947.533 231.811 948.276 231.111 949.438 231.116 950.175 231.823Z" fill="#FFFFFF"/><path d="M953.265 221.104C953.265 222.692 951.978 223.979 950.39 223.979 948.802 223.979 947.515 222.692 947.515 221.104 947.515 219.516 948.802 218.229 950.39 218.229 951.978 218.229 953.265 219.516 953.265 221.104Z" fill="#FFFFFF"/></g></svg>