<svg width="40" height="40" xmlns="http://www.w3.org/2000/svg" xmlns:xlink="http://www.w3.org/1999/xlink" xml:space="preserve" overflow="hidden"><g transform="translate(-922 -553)"><path d="M941.994 557.167C933.255 557.167 926.17 564.252 926.17 572.991 926.17 581.731 933.255 588.816 941.994 588.816 950.734 588.816 957.819 581.731 957.819 572.991 957.819 572.991 957.819 572.99 957.819 572.99 957.822 564.254 950.742 557.17 942.007 557.167 942.003 557.167 941.998 557.167 941.994 557.167ZM949.752 574.4 943.403 574.4 943.403 580.747 940.585 580.747 940.585 574.398 934.236 574.398 934.236 571.581 940.585 571.581 940.585 565.232 943.403 565.232 943.403 571.581 949.752 571.581Z" fill="#FFFFFF"/></g></svg>