<svg width="41" height="41" xmlns="http://www.w3.org/2000/svg" xmlns:xlink="http://www.w3.org/1999/xlink" xml:space="preserve" overflow="hidden"><g transform="translate(-921 -303)"><path d="M951.323 321.792C949.657 321.792 948.333 320.468 948.333 318.802 948.333 317.136 949.657 315.812 951.323 315.812 952.989 315.812 954.312 317.136 954.312 318.802 954.312 320.468 952.989 321.792 951.323 321.792ZM956.021 318.802C956.021 316.197 953.928 314.104 951.323 314.104 948.718 314.104 946.625 316.197 946.625 318.802 946.625 320.938 948.077 322.774 950.042 323.329L950.042 333.323C950.042 336.868 947.18 339.729 943.635 339.729 940.091 339.729 937.229 336.868 937.229 333.323L937.229 328.967C941.585 328.326 944.917 324.61 944.917 320.083 944.917 319.443 944.575 318.888 944.062 318.631L944.062 308.125C944.062 306.844 943.08 305.776 941.842 305.605 941.671 305.093 941.201 304.708 940.646 304.708L940.219 304.708C939.279 304.708 938.51 305.477 938.51 306.417 938.51 307.356 939.279 308.125 940.219 308.125L940.646 308.125C941.158 308.125 941.628 307.783 941.842 307.356 942.141 307.484 942.354 307.783 942.354 308.125L942.354 318.631C941.842 318.93 941.5 319.485 941.5 320.083 941.5 323.158 939.023 325.635 935.948 325.635 932.873 325.635 930.396 323.158 930.396 320.083 930.396 319.443 930.054 318.888 929.542 318.631L929.542 308.125C929.542 307.783 929.755 307.484 930.054 307.356 930.268 307.826 930.695 308.125 931.25 308.125L931.677 308.125C932.617 308.125 933.385 307.356 933.385 306.417 933.385 305.477 932.617 304.708 931.677 304.708L931.25 304.708C930.695 304.708 930.225 305.093 930.054 305.605 928.816 305.776 927.833 306.844 927.833 308.125L927.833 318.631C927.321 318.93 926.979 319.485 926.979 320.083 926.979 324.61 930.31 328.326 934.667 328.967L934.667 333.323C934.667 338.277 938.681 342.292 943.635 342.292 948.59 342.292 952.604 338.277 952.604 333.323L952.604 323.329C954.569 322.774 956.021 320.938 956.021 318.802Z" fill="#FFFFFF"/><path d="M953.458 318.802C953.458 319.981 952.502 320.938 951.323 320.938 950.144 320.938 949.188 319.981 949.188 318.802 949.188 317.623 950.144 316.667 951.323 316.667 952.502 316.667 953.458 317.623 953.458 318.802Z" fill="#FFFFFF"/></g></svg>