<svg width="40" height="39" xmlns="http://www.w3.org/2000/svg" xmlns:xlink="http://www.w3.org/1999/xlink" xml:space="preserve" overflow="hidden"><g transform="translate(-524 -145)"><path d="M31.9312 6.90625 7.06875 6.90625C6.30142 6.91072 5.68303 7.53638 5.6875 8.30371 5.6875 8.30371 5.6875 8.30375 5.6875 8.30375L5.6875 25.0981C5.68299 25.8654 6.30138 26.4911 7.06871 26.4956 7.06871 26.4956 7.06875 26.4956 7.06875 26.4956L22.2625 26.4956 27.7875 32.0938 27.7875 26.4956 31.9312 26.4956C32.6986 26.4912 33.317 25.8655 33.3125 25.0982 33.3125 25.0982 33.3125 25.0981 33.3125 25.0981L33.3125 8.30375C33.317 7.53643 32.6986 6.91076 31.9313 6.90625 31.9313 6.90625 31.9312 6.90625 31.9312 6.90625ZM13 18.6875C11.8782 18.6875 10.9688 17.7781 10.9688 16.6562 10.9688 15.5344 11.8782 14.625 13 14.625 14.1218 14.625 15.0312 15.5344 15.0312 16.6562 15.0312 17.7781 14.1218 18.6875 13 18.6875ZM19.5 18.6875C18.3782 18.6875 17.4688 17.7781 17.4688 16.6562 17.4688 15.5344 18.3782 14.625 19.5 14.625 20.6218 14.625 21.5312 15.5344 21.5312 16.6562 21.5312 17.7781 20.6218 18.6875 19.5 18.6875ZM26 18.6875C24.8782 18.6875 23.9688 17.7781 23.9688 16.6562 23.9688 15.5344 24.8782 14.625 26 14.625 27.1218 14.625 28.0312 15.5344 28.0312 16.6562 28.0312 17.7781 27.1218 18.6875 26 18.6875Z" fill="#FFFFFF" transform="matrix(1.02564 0 0 1 524 145)"/></g></svg>